<svg fill="#000000" xmlns="http://www.w3.org/2000/svg" viewBox="0 0 100 100" width="100px" height="100px"><path d="M 50 14 C 30.129594 14 14 30.129594 14 50 C 14 69.870406 30.129594 86 50 86 C 69.870406 86 86 69.870406 86 50 C 86 30.129594 69.870406 14 50 14 z M 50 16 C 68.789526 16 84 31.210474 84 50 C 84 68.789526 68.789526 84 50 84 C 31.210474 84 16 68.789526 16 50 C 16 31.210474 31.210474 16 50 16 z M 50 19 C 32.906 19 19 32.907 19 50 C 19 67.093 32.906 81 50 81 C 67.094 81 81 67.093 81 50 C 81 41.28 77.295938 32.914875 70.835938 27.046875 C 70.632938 26.861875 70.317859 26.876078 70.130859 27.080078 C 69.944859 27.285078 69.959063 27.601109 70.164062 27.787109 C 76.415062 33.465109 80 41.561 80 50 C 80 66.542 66.542 80 50 80 C 33.458 80 20 66.542 20 50 C 20 33.458 33.458 20 50 20 C 53.551 20 57.025125 20.613219 60.328125 21.824219 C 60.587125 21.920219 60.875703 21.787344 60.970703 21.527344 C 61.065703 21.267344 60.931875 20.981719 60.671875 20.886719 C 57.258875 19.635719 53.668 19 50 19 z M 63.529297 22.144531 C 63.335234 22.133141 63.143031 22.235125 63.050781 22.421875 C 62.928781 22.669875 63.030344 22.968797 63.277344 23.091797 C 63.945344 23.421797 64.606141 23.77925 65.244141 24.15625 C 65.324141 24.20425 65.413 24.226562 65.5 24.226562 C 65.671 24.226562 65.836687 24.139422 65.929688 23.982422 C 66.069688 23.744422 65.990906 23.437875 65.753906 23.296875 C 65.094906 22.905875 64.409703 22.536313 63.720703 22.195312 C 63.659453 22.165312 63.593984 22.148328 63.529297 22.144531 z M 67.414062 24.525391 C 67.288062 24.547266 67.170797 24.616469 67.091797 24.730469 C 66.932797 24.956469 66.986891 25.268734 67.212891 25.427734 C 67.545891 25.661734 67.873312 25.899484 68.195312 26.146484 C 68.286313 26.215484 68.394 26.25 68.5 26.25 C 68.65 26.25 68.799438 26.182688 68.898438 26.054688 C 69.065438 25.834688 69.024687 25.520516 68.804688 25.353516 C 68.470687 25.098516 68.132109 24.848422 67.787109 24.607422 C 67.674109 24.528922 67.540063 24.503516 67.414062 24.525391 z M 35 31 C 33.901469 31 33 31.901469 33 33 C 33 34.098531 33.901469 35 35 35 L 36.943359 35 C 32.627496 38.74198 30 44.105409 30 50 C 30 61.023205 38.976795 70 50 70 C 61.023205 70 70 61.023205 70 50 C 70 43.592897 66.886357 37.525643 61.669922 33.765625 C 60.778594 33.123656 59.519101 33.329126 58.876953 34.220703 C 58.235313 35.111576 58.438047 36.368873 59.330078 37.011719 C 63.505648 40.020728 66 44.879218 66 50 C 66 58.826805 58.826805 66 50 66 C 41.173195 66 34 58.826805 34 50 C 34 45.079484 36.275835 40.635404 40 37.634766 L 40 40 C 40 41.098531 40.901469 42 42 42 C 43.098531 42 44 41.098531 44 40 L 44 31.5 A 0.50005 0.50005 0 0 0 43.5 31 L 35 31 z M 35 32 L 43 32 L 43 40 C 43 40.557469 42.557469 41 42 41 C 41.442531 41 41 40.557469 41 40 L 41 36.517578 A 0.50005 0.50005 0 0 0 40.212891 36.109375 C 35.713443 39.268978 33 44.391994 33 50 C 33 59.369195 40.630805 67 50 67 C 59.369195 67 67 59.369195 67 50 C 67 44.554782 64.352446 39.398163 59.916016 36.201172 C 59.462047 35.874017 59.363093 35.257815 59.689453 34.804688 C 60.015305 34.352264 60.631313 34.252094 61.083984 34.578125 C 66.039549 38.150107 69 43.917103 69 50 C 69 60.480795 60.480795 69 50 69 C 39.519205 69 31 60.480795 31 50 C 31 43.965898 33.800247 38.454908 38.486328 34.898438 A 0.50005 0.50005 0 0 0 38.183594 34 L 35 34 C 34.442531 34 34 33.557469 34 33 C 34 32.442531 34.442531 32 35 32 z"/></svg>